HIERARCHY
ROOT pelvis
{
  OFFSET 0 100 0
  CHANNELS 6 Xposition Yposition Zposition Zrotation Xrotation Yrotation
  JOINT pelvis_right_femur
  {
    OFFSET -10.78128 -3.44521 -0.5502486
    CHANNELS 3 Zrotation Xrotation Yrotation
    JOINT right_femur_tibia
    {
      OFFSET -0.8047443 -44.0398 -0.1307829
      CHANNELS 3 Zrotation Xrotation Yrotation
      JOINT right_tibia_foot
      {
        OFFSET 3.006224 -47.83518 -5
        CHANNELS 3 Zrotation Xrotation Yrotation
        End Site
        {
          OFFSET 0 -5 15
        }
      }
    }
  }
  JOINT pelvis_left_femur
  {
    OFFSET 10.78128 -3.44521 -0.5502486
    CHANNELS 3 Zrotation Xrotation Yrotation
    JOINT left_femur_tibia
    {
      OFFSET 0.8047443 -44.0398 -0.1307829
      CHANNELS 3 Zrotation Xrotation Yrotation
      JOINT left_tibia_foot
      {
        OFFSET -4.370144 -48.10324 -4.275266
        CHANNELS 3 Zrotation Xrotation Yrotation
        End Site
        {
          OFFSET 0 -5 15
        }
      }
    }
  }
  JOINT pelvis_spine1
  {
    OFFSET 0 6.468898 -3.129235
    CHANNELS 3 Zrotation Xrotation Yrotation
    JOINT spine1
    {
      OFFSET 0 23.15396 4.99043
      CHANNELS 3 Zrotation Xrotation Yrotation
      JOINT spine2
      {
        OFFSET 0 20.79997 -5.064912
        CHANNELS 3 Zrotation Xrotation Yrotation
        JOINT neck
        {
          OFFSET 0 14.38658 9.616178
          CHANNELS 3 Zrotation Xrotation Yrotation
          End Site
          {
            OFFSET 0 20 0
          }
        }
      }
      JOINT right_manubrium
      {
        OFFSET -5.722621 16.35077 3.967754
        CHANNELS 3 Zrotation Xrotation Yrotation
        JOINT right_clavicle
        {
          OFFSET -13.16364 1.694482 -4.693211
          CHANNELS 3 Zrotation Xrotation Yrotation
          JOINT right_humerus
          {
            OFFSET -28.5034 -0.3100689 -2.792744
            CHANNELS 3 Zrotation Xrotation Yrotation
            JOINT right_radius
            {
              OFFSET -25.15693 0.02248979 -1.271978
              CHANNELS 3 Zrotation Xrotation Yrotation
              End Site
              {
                OFFSET -15 0 0
              }
            }
          }
        }
      }
      JOINT left_manubrium
      {
        OFFSET 5.722621 16.35077 3.967754
        CHANNELS 3 Zrotation Xrotation Yrotation
        JOINT left_clavicle
        {
          OFFSET 13.16364 1.694482 -4.693211
          CHANNELS 3 Zrotation Xrotation Yrotation
          JOINT left_humerus
          {
            OFFSET 29.39168 -1.063119 -2.237045
            CHANNELS 3 Zrotation Xrotation Yrotation
            JOINT left_radius
            {
              OFFSET 24.59957 -0.9528479 0.9047498
              CHANNELS 3 Zrotation Xrotation Yrotation
              End Site
              {
                OFFSET 15 -0 -0
              }
            }
          }
        }
      }
    }
  }
}
MOTION
Frames: 9
Frame Time: 0.0416666666667
-1478.118 81.03707 2678.436 -13.13122 -3.073801 -77.95784 4.00231 2.894861 -12.87305 -0 17.90761 -0 -27.67958 18.46819 9.545194 -1.465618 -1.01604 -3.207344 -0 17.1761 -0 10.7886 -6.679292 16.81423 0.3490242 -2.894211 3.506626 -0.7168367 18.20101 -5.411795 0.9385297 23.75378 3.095183 2.791892 -21.22871 3.282073 -10.6453 -28.13939 10.99545 101.4955 8.255701 -12.80238 -0 0 10.85492 -27.33755 1.773818 12.81041 3.918847 -29.19543 -13.10475 -87.52788 -3.516494 21.32298 0 0 -10.3829 27.50655 12.51813 -23.51688
-1484.815 81.0816 2680.568 -13.14446 -3.035417 -78.12661 3.99366 2.840538 -12.88413 -0 17.92886 -0 -27.69838 18.50861 9.554812 -1.477499 -0.9523372 -3.212992 -0 17.18371 -0 10.79556 -6.692939 16.80774 0.3485497 -2.896304 3.496837 -0.7148495 18.20536 -5.417875 0.9384651 23.75566 3.096428 2.793121 -21.23056 3.282647 -10.64987 -28.13083 10.99534 101.5155 8.243397 -12.8202 -0 0 10.82754 -27.33702 1.768336 12.80374 3.919252 -29.2084 -13.11407 -87.51705 -3.530229 21.29613 0 0 -10.40167 27.52633 12.51316 -23.54281
-1491.521 81.12886 2682.678 -13.15651 -2.995935 -78.29434 3.987013 2.77617 -12.89592 -0 17.93073 -0 -27.71924 18.54726 9.563861 -1.48843 -0.8827481 -3.216652 -0 17.20742 -0 10.80186 -6.705741 16.79817 0.3495548 -2.898431 3.48659 -0.7114931 18.2104 -5.425745 0.9382254 23.75701 3.097238 2.794281 -21.23332 3.282571 -10.65486 -28.12111 10.99583 101.5378 8.230754 -12.84301 -0 0 10.79531 -27.33413 1.76364 12.79474 3.919877 -29.22494 -13.12415 -87.50457 -3.546002 21.26534 0 0 -10.4284 27.54931 12.50731 -23.57273
-1498.234 81.17861 2684.766 -13.16724 -2.955269 -78.46165 3.9827 2.705583 -12.90775 -0 17.91348 -0 -27.74096 18.58202 9.571851 -1.497818 -0.8113061 -3.218158 -0 17.24556 -0 10.80716 -6.716995 16.78613 0.3519537 -2.900471 3.476472 -0.7069842 18.21583 -5.434927 0.9378272 23.75777 3.097573 2.795309 -21.23683 3.28186 -10.66 -28.11081 10.99689 101.561 8.218478 -12.86942 -0 0 10.76015 -27.32909 1.759974 12.78396 3.920678 -29.24406 -13.13441 -87.4912 -3.562899 21.23242 0 0 -10.46143 27.57414 12.50094 -23.60489
-1504.956 81.23051 2686.831 -13.17659 -2.913404 -78.62916 3.980906 2.632867 -12.91895 -0 17.87856 -0 -27.76228 18.61105 9.578352 -1.505179 -0.7420377 -3.217468 -0 17.29574 -0 10.81118 -6.7261 16.77232 0.3555819 -2.902312 3.467044 -0.7016027 18.22135 -5.444877 0.9372978 23.75792 3.097426 2.79615 -21.24085 3.280569 -10.66499 -28.10051 10.99843 101.5838 8.207239 -12.89787 -0 0 10.72407 -27.32223 1.757523 12.77205 3.921605 -29.26463 -13.14428 -87.47769 -3.579951 21.19925 0 0 -10.49876 27.59937 12.49441 -23.63743
-1511.686 81.28411 2688.873 -13.18459 -2.870399 -78.79747 3.981667 2.562134 -12.92891 -0 17.82838 -0 -27.782 18.63289 9.583016 -1.51016 -0.6787369 -3.21467 -0 17.35494 -0 10.81368 -6.732591 16.75756 0.3602069 -2.903849 3.458811 -0.6956742 18.22665 -5.455018 0.9366731 23.75745 3.096819 2.796762 -21.24515 3.278787 -10.66956 -28.09077 11.00037 101.605 8.197633 -12.92674 -0 0 10.68911 -27.31401 1.756406 12.75969 3.9226 -29.28545 -13.15321 -87.4648 -3.596189 21.16766 0 0 -10.53822 27.62357 12.48808 -23.6685
-1518.424 81.33887 2690.892 -13.19133 -2.826374 -78.96711 3.98487 2.497289 -12.93708 -0 17.76623 -0 -27.79902 18.64656 9.585602 -1.512557 -0.6247624 -3.209969 -0 17.41975 -0 10.81454 -6.736167 16.74268 0.3655436 -2.904997 3.4522 -0.6895494 18.23142 -5.464775 0.9359941 23.75643 3.095799 2.797115 -21.24945 3.276631 -10.67344 -28.08207 11.00259 101.6234 8.190152 -12.9544 -0 0 10.65715 -27.30493 1.756667 12.7476 3.923604 -29.30534 -13.16072 -87.4532 -3.610703 21.13933 0 0 -10.57755 27.64537 12.48229 -23.69634
-1525.169 81.39424 2692.887 -13.19695 -2.781503 -79.13852 3.990266 2.441808 -12.94304 -0 17.69599 -0 -27.81242 18.65152 9.585991 -1.512311 -0.5828665 -3.203674 -0 17.48649 -0 10.81371 -6.7367 16.72849 0.3712728 -2.905696 3.447534 -0.6835816 18.2354 -5.473609 0.935304 23.75493 3.094439 2.797197 -21.2535 3.274238 -10.67644 -28.07486 11.00494 101.638 8.185163 -12.97936 -0 0 10.62989 -27.29555 1.758272 12.73644 3.924559 -29.3232 -13.16643 -87.44351 -3.6227 21.11574 0 0 -10.61455 27.66357 12.47735 -23.71944
-1531.923 81.44963 2694.86 -13.20167 -2.736001 -79.31202 3.997493 2.39856 -12.94648 -0 17.62187 -0 -27.82151 18.64776 9.584196 -1.509514 -0.5550645 -3.196179 -0 17.55144 -0 10.81124 -6.734236 16.71577 0.3770609 -2.905911 3.445021 -0.6781055 18.2384 -5.481046 0.9346446 23.75303 3.092827 2.797011 -21.25706 3.271754 -10.67839 -28.06948 11.00731 101.6482 8.182884 -13.00029 -0 0 10.60872 -27.2864 1.761108 12.72681 3.925413 -29.33806 -13.17007 -87.43621 -3.631547 21.09807 0 0 -10.64721 27.67722 12.47352 -23.7366
